<svg xmlns="http://www.w3.org/2000/svg" xmlns:xlink="http://www.w3.org/1999/xlink" width="123.122" height="45.373" viewBox="0 0 123.122 45.373">
  <defs>
    <clipPath id="clip-path">
      <rect id="Retângulo_31" data-name="Retângulo 31" width="123.122" height="45.373" fill="#26e1cd"/>
    </clipPath>
  </defs>
  <g id="Grupo_584" data-name="Grupo 584" transform="translate(0 0)">
    <g id="Grupo_562" data-name="Grupo 562" transform="translate(0 0)" clip-path="url(#clip-path)">
      <path id="Caminho_46" data-name="Caminho 46" d="M1.286,67.826l4.231-2.25a1.9,1.9,0,0,1,.812-.266,1.5,1.5,0,0,1,1.049.5,3.789,3.789,0,0,0,2.5,1.332q1.083,0,1.083-1.036,0-1.6-3.756-3.167A16.472,16.472,0,0,1,2.437,60.1,7.674,7.674,0,0,1,0,54.181a8.647,8.647,0,0,1,2.944-6.9A10.9,10.9,0,0,1,10.39,44.77a10.045,10.045,0,0,1,8.055,3.877Q20.1,50.6,20.1,51.666q0,.887-1.388,1.539l-3.688,1.717a2.73,2.73,0,0,1-1.117.325,1.917,1.917,0,0,1-1.523-.888,1.772,1.772,0,0,0-1.455-.74q-1.016,0-1.015.888,0,1.124,3.113,2.515,7.851,3.463,7.852,9.678A8.561,8.561,0,0,1,17.8,73.42a10.719,10.719,0,0,1-7.309,2.634,11.774,11.774,0,0,1-9-4.114A4.564,4.564,0,0,1,0,69.394q0-.888,1.286-1.568" transform="translate(0 -30.71)" fill="#26e1cd"/>
      <path id="Caminho_47" data-name="Caminho 47" d="M80.413,34.511v8.376A1.7,1.7,0,0,1,78.43,44.87h-5.3a1.694,1.694,0,0,1-1.983-1.983V1.984A1.694,1.694,0,0,1,73.132,0h5.3a1.7,1.7,0,0,1,1.983,1.983v23l5.623-8.938a2.875,2.875,0,0,1,2.664-1.48h6.334q1.272,0,1.272,1.036a1.442,1.442,0,0,1-.3.74L87.694,29.657l8.494,13.436a1.574,1.574,0,0,1,.3.741q0,1.036-1.273,1.035h-6.57a2.622,2.622,0,0,1-2.4-1.065Z" transform="translate(-48.804 0)" fill="#26e1cd"/>
      <path id="Caminho_48" data-name="Caminho 48" d="M154.913,44.864a15.562,15.562,0,0,1,15.479,15.568,15.612,15.612,0,1,1-26.666-11.01,15.085,15.085,0,0,1,11.187-4.558m-.177,9.264a6.315,6.315,0,0,0-6.3,6.3,6.268,6.268,0,0,0,6.363,6.363,6.334,6.334,0,1,0-.059-12.667" transform="translate(-95.463 -30.775)" fill="#26e1cd"/>
      <path id="Caminho_49" data-name="Caminho 49" d="M249.694,46.37a11.172,11.172,0,0,1,6.067-1.509h2.811q2.043-.059,1.983,1.954V52.2a1.7,1.7,0,0,1-1.983,1.983h-2.811a4.334,4.334,0,0,0-3.2,1.273,3.576,3.576,0,0,0-1.125,2.663V73.658a1.7,1.7,0,0,1-1.983,1.983h-5.3a1.7,1.7,0,0,1-1.983-1.983V47.2a1.7,1.7,0,0,1,1.983-1.983h4.114q1.3-.03,1.42,1.153" transform="translate(-166.121 -30.771)" fill="#26e1cd"/>
      <path id="Caminho_50" data-name="Caminho 50" d="M309.65,63.757q1.3,3.789,6.215,3.788a16.84,16.84,0,0,0,6.186-1.273,2.711,2.711,0,0,1,.917-.237q1.037,0,1.569,1.3l1.568,3.818a2.956,2.956,0,0,1,.3,1.1q0,.858-1.125,1.509a19.148,19.148,0,0,1-9.767,2.516A15.614,15.614,0,0,1,304,71.689a15.152,15.152,0,0,1-4.587-11.128,15.511,15.511,0,0,1,15.538-15.509,12.294,12.294,0,0,1,10.536,5.15,16.608,16.608,0,0,1,3.019,10,14.556,14.556,0,0,1-.118,2.1q-.207,1.451-2.013,1.45Zm9.53-6.985q-.592-2.9-4.587-2.9a5,5,0,0,0-4.884,2.9Z" transform="translate(-205.381 -30.904)" fill="#26e1cd"/>
    </g>
  </g>
</svg>
